<?xml version="1.0" encoding="utf-8"?>
<!-- Generator: Adobe Illustrator 22.0.1, SVG Export Plug-In . SVG Version: 6.00 Build 0)  -->
<svg version="1.1" id="Layer_1" xmlns="http://www.w3.org/2000/svg" xmlns:xlink="http://www.w3.org/1999/xlink" x="0px" y="0px"
	 viewBox="0 0 300 100" style="enable-background:new 0 0 300 100;" xml:space="preserve">
<style type="text/css">
	.st0{fill:url(#Rectangle_2_copy_6_1_);}
</style>
<g>
	
		<linearGradient id="Rectangle_2_copy_6_1_" gradientUnits="userSpaceOnUse" x1="842.3671" y1="-2512.2983" x2="905.0461" y2="-2574.9773" gradientTransform="matrix(1 0 0 -1 -842 -2491)">
		<stop  offset="0" style="stop-color:#5222F5"/>
		<stop  offset="1" style="stop-color:#67E7CE"/>
	</linearGradient>
	<path id="Rectangle_2_copy_6" class="st0" d="M34.5,86.7h-0.1c-16.9,0-30.7-13.5-31.2-30.4H3c-0.5-20.1,12.9-38,32.4-43.1
		c0.1,3.6,0.1,7.2,0.1,10.7c17.3,0.7,30.8,15.2,30.1,32.5C65,73.3,51.3,86.6,34.5,86.7z M38.2,53.3L38.2,53.3
		c-7.5,0-13.6,6.1-13.6,13.6c0,7.5,6.1,13.6,13.6,13.6l0,0h0c7.5,0,13.6-6.1,13.6-13.6C51.8,59.4,45.7,53.3,38.2,53.3L38.2,53.3z"/>
	<path id="Quotes.pub" d="M89.2,62.9c0.8,1.5,2,2.7,3.5,3.4c1.5,0.8,4.1,1.3,7.8,1.3c3.6,0,6.3-0.5,7.9-1.4c1.5-0.8,2.7-2,3.5-3.5
		c1.4-2.7,2.1-6.6,2.1-11.7c0.1-3.1-0.2-6.3-1-9.3c-0.3-1-0.7-2-1.2-3c-0.4-0.8-0.9-1.5-1.6-2.1c-0.6-0.5-1.2-1-1.9-1.4
		c-0.7-0.4-1.5-0.7-2.3-0.8c-0.8-0.2-1.7-0.3-2.6-0.4c-0.8-0.1-1.9-0.1-3.4-0.1c-1.4,0-2.8,0.1-4.2,0.4c-0.7,0.1-1.4,0.3-2.1,0.6
		c-0.6,0.3-1.3,0.6-1.8,1c-0.6,0.4-1.2,0.9-1.6,1.6c-0.5,0.7-0.9,1.4-1.3,2.2c-0.4,0.9-0.7,1.9-1,2.9c-0.3,1.2-0.5,2.5-0.6,3.8
		c-0.1,1.4-0.2,3-0.2,4.8c0,1.8,0.1,3.7,0.3,5.8C87.7,58.9,88.3,61,89.2,62.9L89.2,62.9L89.2,62.9z M94.8,42
		c0.3-0.5,0.6-0.9,0.9-1.3c0.4-0.4,0.8-0.6,1.3-0.7c0.5-0.1,1.1-0.2,1.6-0.3c0.5-0.1,1.4-0.1,2.7-0.1c1.1,0,2.3,0.2,3.3,0.6
		c0.6,0.2,1,0.6,1.4,1.1c0.4,0.6,0.7,1.3,0.9,2c0.3,1,0.5,2.1,0.6,3.1c0.1,1.2,0.2,3,0.2,5.4c0,2-0.2,4-0.7,5.9
		c-0.3,1.3-1,2.4-2.1,3.1c-1.4,0.6-3,0.9-4.5,0.8c-1.6,0.1-3.3-0.3-4.7-1.1c-0.6-0.5-1-1.2-1.3-1.9c-0.3-1-0.5-2-0.6-3.1
		c-0.1-1.2-0.2-2.6-0.2-4.4c0-1.7,0-3.1,0.1-4.2c0.1-1,0.2-1.9,0.4-2.9C94.2,43.4,94.4,42.7,94.8,42L94.8,42z M109.6,70.2
		c-1.2,0.3-2.4,0.5-3.6,0.5c-1.5,0.2-3-0.5-3.9-1.8h-3.6c0,1.1,0.3,2.1,0.8,3c0.5,0.8,1.1,1.5,1.9,2.1c0.8,0.5,1.6,0.9,2.5,1.2
		c0.9,0.3,1.8,0.4,2.8,0.4c1,0,2-0.1,3-0.3L109.6,70.2L109.6,70.2z M120.5,65c3.9,3.7,10,3.7,13.9,0c1.8-1.6,2.9-4,2.9-6.5v-11
		c0-0.5-0.3-1-0.8-1.3c-0.6-0.4-1.4-0.6-2.1-0.5c-0.7,0-1.4,0.2-2.1,0.5c-0.5,0.2-0.8,0.7-0.9,1.3v11c0,1.1-0.4,2.1-1.2,2.8
		c-0.7,0.8-1.7,1.3-2.8,1.3c-1.1,0-2.1-0.4-2.8-1.3c-0.8-0.7-1.2-1.8-1.2-2.8V47.6c-0.1-0.5-0.4-1-0.9-1.3c-0.6-0.4-1.3-0.6-2-0.6
		c-0.7,0-1.5,0.2-2.1,0.6c-0.5,0.2-0.8,0.7-0.9,1.3v10.9C117.5,61,118.6,63.4,120.5,65z M143.8,65c3.8,3.8,10,3.8,13.9,0
		c1.9-1.6,2.9-4,3-6.5v-3.7c0-2.5-1.1-4.9-3-6.5c-3.9-3.7-10-3.6-13.9,0c-1.9,1.7-2.9,4-2.9,6.5v3.7C140.8,60.9,141.9,63.3,143.8,65
		L143.8,65z M146.7,54.7c0-1.1,0.4-2.1,1.2-2.8c0.7-0.8,1.8-1.2,2.8-1.2c1.1,0,2.1,0.5,2.8,1.3c0.8,0.7,1.2,1.8,1.2,2.8v3.7
		c0,1.1-0.4,2.1-1.2,2.9c-1.4,1.6-3.8,1.7-5.3,0.3c-0.1-0.1-0.2-0.2-0.3-0.3c-0.8-0.8-1.2-1.8-1.2-2.9V54.7z M172.7,67.4h1.8
		c0.7,0,1.4-0.2,1.8-0.8c0.4-0.5,0.7-1.2,0.7-1.9c0-0.7-0.2-1.3-0.7-1.8c-0.5-0.5-1.1-0.8-1.8-0.8h-1.8c-0.7,0.1-1.4-0.1-2-0.5
		c-0.4-0.5-0.6-1.1-0.6-1.8v-9.5h5.4c0.5,0,0.9-0.3,1.1-0.7c0.3-0.5,0.4-1.1,0.4-1.6c0-0.6-0.1-1.1-0.4-1.6
		c-0.2-0.4-0.6-0.7-1.1-0.7h-5.4v-7.5c0-0.5-0.4-1-0.9-1.2c-0.6-0.3-1.3-0.5-2.1-0.5c-0.7,0-1.4,0.2-2,0.5c-0.5,0.2-0.9,0.7-0.9,1.3
		v21.9C164.3,64.9,167.1,67.4,172.7,67.4L172.7,67.4z M182.2,65.2c4,2.9,9.2,3.4,13.7,1.3c1.5-0.8,2.3-1.7,2.3-2.5
		c0-0.6-0.3-1.2-0.6-1.7c-0.3-0.6-0.9-0.9-1.6-0.9c-0.8,0.2-1.5,0.4-2.2,0.9c-1.1,0.6-2.2,0.9-3.4,0.9c-1.4,0.1-2.8-0.3-3.9-1.2
		c-1-0.8-1.5-1.9-1.5-3.2v-0.7h9.3c0.5,0,1,0,1.6-0.1c0.5-0.1,0.9-0.2,1.3-0.5c0.5-0.3,0.9-0.7,1.1-1.2c0.3-0.7,0.4-1.5,0.3-2.2
		c0-2.4-1-4.6-2.8-6.2c-1.8-1.6-4.2-2.5-6.6-2.4c-2.6-0.1-5.2,0.9-7.1,2.7c-1.9,1.6-2.9,4-2.9,6.4v3.9
		C179,61.1,180.2,63.6,182.2,65.2L182.2,65.2z M185,53.4c0-0.9,0.4-1.8,1.2-2.4c0.8-0.6,1.8-0.9,2.8-0.9c1,0,2,0.3,2.8,0.9
		c0.7,0.6,1.2,1.5,1.2,2.4c0,0.3-0.1,0.7-0.3,0.9c-0.3,0.2-0.7,0.3-1,0.2H185V53.4z M203,66.6c1.8,0.8,3.8,1.2,5.8,1.2
		c2.2,0.1,4.4-0.5,6.2-1.8c1.5-1.2,2.3-3.1,2.2-5c0-1.1-0.2-2.2-0.8-3.2c-0.5-0.8-1.2-1.5-2-1.9c-0.8-0.4-1.7-0.8-2.6-1.1
		c-0.9-0.3-1.7-0.5-2.6-0.7c-0.7-0.1-1.4-0.4-2-0.8c-0.5-0.2-0.8-0.7-0.8-1.2c0-0.6,0.3-1.1,0.8-1.4c0.7-0.5,1.5-0.7,2.4-0.6
		c1,0,2.1,0.2,3,0.6c0.6,0.3,1.3,0.5,2,0.6c0.7,0,1.2-0.4,1.5-1c0.4-0.5,0.6-1.2,0.6-1.8c0-0.8-0.7-1.5-2.2-2.1
		c-1.6-0.6-3.3-0.9-5-0.9c-2.8,0-4.9,0.7-6.2,2c-1.3,1.3-2,3-2,4.9c0,1.2,0.4,2.4,1.1,3.4c0.7,0.9,1.7,1.5,2.7,1.9
		c1.1,0.4,2.1,0.7,3.2,0.9c0.9,0.2,1.8,0.6,2.7,1c0.7,0.3,1.1,1,1.1,1.7c0,1.3-1.1,1.9-3.4,1.9c-1,0-2-0.1-3-0.5
		c-0.7-0.3-1.4-0.6-2-0.9c-0.4-0.3-0.8-0.4-1.3-0.5c-0.6,0-1.1,0.4-1.4,0.9c-0.4,0.5-0.6,1.1-0.6,1.7
		C200.6,64.9,201.4,65.8,203,66.6L203,66.6z M222.9,67.7c0.8,0,1.5-0.3,2.1-0.9c1.2-1.2,1.2-3.1,0-4.4c-1.1-1.2-2.9-1.2-4-0.1
		c0,0-0.1,0.1-0.1,0.1c-1.1,1.2-1.1,3.1,0,4.4C221.3,67.3,222,67.7,222.9,67.7L222.9,67.7z M230.5,76.9c0.6,0.4,1.3,0.6,2.1,0.6
		c0.7,0,1.5-0.2,2.1-0.6c0.5-0.2,0.8-0.7,0.9-1.3V64.2c0.5,1.1,1.3,1.9,2.4,2.5c1.1,0.7,2.3,1.1,3.6,1.1c2.2,0,4.2-1.1,5.6-2.8
		c1.6-1.8,2.4-4.1,2.4-6.5v-3.7c0-2.4-0.8-4.7-2.4-6.5c-1.4-1.7-3.6-2.7-5.8-2.7c-1.3,0-2.6,0.3-3.7,1c-1,0.6-1.9,1.5-2.5,2.5v-1.4
		c0-0.6-0.3-1.1-0.8-1.3c-1.2-0.7-2.7-0.7-3.9,0c-0.5,0.3-0.8,0.8-0.8,1.3v28C229.7,76.1,230,76.6,230.5,76.9L230.5,76.9z
		 M235.5,54.7c-0.1-2.2,1.7-4,3.8-4.1c0,0,0.1,0,0.1,0c1.1,0,2.2,0.4,2.9,1.2c0.8,0.7,1.2,1.8,1.2,2.8v3.7c0,1.1-0.5,2.1-1.2,2.9
		c-0.7,0.8-1.7,1.3-2.8,1.3c-1.1,0-2.1-0.4-2.8-1.2c-0.7-0.5-1.1-1.3-1.2-2.1L235.5,54.7L235.5,54.7z M256,65c3.9,3.7,10,3.7,13.9,0
		c1.8-1.6,2.9-4,2.9-6.5v-11c0-0.5-0.3-1-0.8-1.3c-0.6-0.4-1.4-0.6-2.1-0.5c-0.7,0-1.4,0.2-2.1,0.5c-0.5,0.2-0.8,0.7-0.9,1.3v11
		c0,1.1-0.4,2.1-1.2,2.8c-0.7,0.8-1.7,1.3-2.8,1.3c-1.1,0-2.1-0.4-2.8-1.3c-0.8-0.7-1.2-1.8-1.2-2.8V47.6c-0.1-0.5-0.4-1-0.9-1.3
		c-0.6-0.4-1.3-0.6-2-0.6c-0.7,0-1.5,0.2-2.1,0.6c-0.5,0.2-0.8,0.7-0.9,1.3v10.9C253,61,254.1,63.4,256,65L256,65z M278,66.8
		c0.6,0.4,1.3,0.6,2.1,0.6c0.7,0,1.3-0.2,1.8-0.6c0.5-0.3,0.8-0.8,0.8-1.3v-1.3c0.6,1.1,1.4,2,2.5,2.5c3.1,2,7.2,1.2,9.4-1.7
		c1.6-1.8,2.4-4.1,2.4-6.5v-3.7c0-2.4-0.8-4.7-2.4-6.5c-1.4-1.7-3.5-2.7-5.7-2.7c-1.3,0-2.5,0.3-3.5,1c-1,0.6-1.8,1.5-2.3,2.5V35
		c0-0.6-0.4-1.1-0.9-1.3c-0.7-0.3-1.4-0.5-2.1-0.5c-0.7,0-1.4,0.1-2.1,0.5c-0.5,0.3-0.8,0.8-0.8,1.3v30.6
		C277.2,66.1,277.5,66.5,278,66.8L278,66.8z M283.1,54.7c0-1.1,0.4-2.2,1.3-3c0.8-0.7,1.8-1.1,2.8-1.1c1.1,0,2.1,0.4,2.8,1.2
		c0.8,0.7,1.2,1.8,1.2,2.8v3.7c0,1.1-0.4,2.1-1.2,2.9c-0.7,0.8-1.7,1.3-2.8,1.3c-1.1,0-2.1-0.5-2.8-1.2c-0.7-0.5-1.1-1.3-1.3-2.1
		V54.7z"/>
</g>
</svg>
